<svg width="197" height="32" viewBox="0 0 197 32" fill="none" xmlns="http://www.w3.org/2000/svg">
<path d="M62.3457 14.0034C61.7979 18.3272 55.7455 21.1217 48.8274 20.2451C41.9093 19.3685 36.7452 15.1527 37.2931 10.8289C37.841 6.50514 43.8934 3.71063 50.8115 4.58725C57.7295 5.46386 62.8936 9.67963 62.3457 14.0034Z" fill="url(#paint0_radial_513_259)"/>
<path d="M35.6827 10.7814C36.4079 15.079 31.4215 19.5036 24.5453 20.6638C17.6691 21.8241 11.507 19.2808 10.7818 14.9832C10.0566 10.6856 15.043 6.26106 21.9192 5.10077C28.7954 3.94048 34.9575 6.4838 35.6827 10.7814Z" fill="url(#paint1_radial_513_259)"/>
<path fill-rule="evenodd" clip-rule="evenodd" d="M70.1433 21.9768C70.3885 22.8133 69.9091 23.6901 69.0726 23.9353C48.8879 29.8521 23.2181 29.9587 3.04155 24.1651C2.20373 23.9245 1.71957 23.0503 1.96015 22.2125C2.20072 21.3747 3.07494 20.8905 3.91276 21.1311C23.5105 26.7585 48.5702 26.6558 68.1847 20.9062C69.0212 20.661 69.8981 21.1403 70.1433 21.9768Z" fill="url(#paint2_radial_513_259)"/>
<path fill-rule="evenodd" clip-rule="evenodd" d="M7.89888 20.157C8.0118 21.0213 7.40267 21.8135 6.53834 21.9265C5.15305 22.1074 4.06539 22.7351 3.51552 23.35C3.24204 23.6558 3.17058 23.8777 3.15878 23.9686C3.15853 23.9706 3.15826 23.9725 3.158 23.9744C3.15324 24.0094 3.14989 24.034 3.2172 24.1088C3.8005 24.7565 3.74826 25.7545 3.10051 26.3378C2.45276 26.9211 1.4548 26.8688 0.871499 26.2211C0.183021 25.4565 -0.0949521 24.5132 0.0284034 23.5625C0.144936 22.6643 0.600511 21.8743 1.16243 21.2459C2.28335 19.9923 4.09991 19.0616 6.12941 18.7964C6.99374 18.6835 7.78596 19.2927 7.89888 20.157Z" fill="url(#paint3_linear_513_259)"/>
<path fill-rule="evenodd" clip-rule="evenodd" d="M63.6289 20.3615C63.6289 19.4898 64.3355 18.7832 65.2072 18.7832C67.6189 18.7832 69.471 19.2124 70.6622 20.3966C71.8779 21.6051 72.0167 23.2186 72.0167 24.4788C72.0167 25.3505 71.31 26.0571 70.4384 26.0571C69.5667 26.0571 68.8601 25.3505 68.8601 24.4788C68.8601 23.3276 68.6855 22.8826 68.4367 22.6352C68.1635 22.3636 67.4 21.9398 65.2072 21.9398C64.3355 21.9398 63.6289 21.2332 63.6289 20.3615Z" fill="url(#paint4_linear_513_259)"/>
<path fill-rule="evenodd" clip-rule="evenodd" d="M19.2292 17.1704C20.4176 17.254 21.5367 16.2807 21.7288 14.9964C21.9208 13.7122 21.113 12.6033 19.9246 12.5196C19.2657 12.4733 18.6282 12.7518 18.1581 13.228C18.5254 13.7389 18.8649 13.9278 19.4043 13.9787L17.5538 14.1855C17.495 14.3478 17.4513 14.5178 17.425 14.6936C17.233 15.9778 18.0407 17.0867 19.2292 17.1704Z" fill="black"/>
<path fill-rule="evenodd" clip-rule="evenodd" d="M54.2637 13.3882C54.5056 13.655 54.7719 13.7748 55.1682 13.8735L53.8545 14.0933C53.7863 14.2735 53.7387 14.4635 53.7149 14.6602C53.5664 15.8919 54.4111 16.9227 55.6017 16.9626C56.7923 17.0024 57.8779 16.0362 58.0264 14.8045C58.175 13.5727 57.3302 12.5419 56.1397 12.5021C55.4117 12.4778 54.7229 12.8295 54.2637 13.3882Z" fill="black"/>
<path d="M87.1521 29.7538C85.5795 29.7673 84.1641 29.4845 82.9059 28.9055C81.6475 28.3019 80.6568 27.3889 79.9337 26.1664C79.2104 24.9193 78.8406 23.3375 78.8242 21.4209L83.6847 20.8265C83.6962 22.1779 84.0004 23.2688 84.5973 24.0992C85.2187 24.9294 86.0946 25.3397 87.2249 25.33C88.1586 25.322 88.8566 25.0458 89.3188 24.5012C89.7808 23.9321 90.0078 23.1806 89.9999 22.2469C89.9913 21.2395 89.7265 20.4554 89.2057 19.8947C88.6849 19.3339 88.017 18.8236 87.2022 18.3637L83.8315 16.4389C82.5227 15.6883 81.4083 14.6903 80.4885 13.4449C79.593 12.1748 79.1376 10.6428 79.1222 8.84912C79.1096 7.37482 79.4178 6.05751 80.0468 4.89719C80.7002 3.71209 81.6382 2.77028 82.8609 2.07178C84.1082 1.37307 85.5918 1.01636 87.3118 1.00166C89.6215 0.981919 91.4824 1.6295 92.8943 2.94439C94.3308 4.25908 95.0849 6.24307 95.1568 8.89638L90.3007 10.0068C90.2745 6.93538 89.2539 5.40826 87.239 5.42548C86.4036 5.43262 85.7424 5.6963 85.2554 6.2165C84.7929 6.73649 84.5656 7.45106 84.5733 8.36021C84.5809 9.24478 84.8082 9.96776 85.2554 10.5291C85.727 11.0903 86.3827 11.613 87.2223 12.0973L90.5565 14.0592C92.0877 14.9554 93.2887 16.0263 94.1594 17.2721C95.0545 18.4931 95.5098 20.0128 95.5253 21.8311C95.5394 23.4774 95.1952 24.8933 94.4927 26.0788C93.7902 27.2644 92.8027 28.1697 91.5302 28.7949C90.2823 29.4199 88.8229 29.7396 87.1521 29.7538Z" fill="url(#paint5_radial_513_259)"/>
<path d="M98.0498 29.352L99.1681 6.23172L93.793 5.97174L94.0102 1.48022L110.246 2.26553L109.513 6.73211L104.543 6.49171L103.425 29.6119L98.0498 29.352Z" fill="url(#paint6_radial_513_259)"/>
<path d="M112.551 31.0482L109.563 3.56617L124.146 1.98047L124.083 6.51064L115.435 7.45091L116.16 14.1199L123.122 13.3629L123.051 17.8198L116.638 18.517L117.451 25.9921L126.832 24.9722L126.805 29.4984L112.551 31.0482Z" fill="url(#paint7_radial_513_259)"/>
<path d="M128.353 30.6269L125.777 3.10316L132.31 2.4918C135.564 2.18727 138.091 2.69112 139.892 4.00335C141.715 5.28883 142.76 7.35057 143.025 10.1886C143.293 13.051 142.643 15.3331 141.075 17.0347C139.528 18.7095 137.153 19.6969 133.948 19.9969L132.81 20.1034L133.748 30.122L128.353 30.6269ZM132.391 15.6262L133.933 15.4819C135.254 15.3583 136.235 14.8963 136.876 14.0959C137.514 13.2711 137.769 12.1736 137.641 10.8036C137.375 7.96555 135.872 6.67477 133.132 6.93122L131.591 7.07547L132.391 15.6262Z" fill="url(#paint8_radial_513_259)"/>
<path d="M151.926 30.9073C149.224 30.9304 147.165 30.1494 145.751 28.5642C144.336 26.9545 143.616 24.6016 143.589 21.5056L143.43 2.81889L148.848 2.77259L149.014 22.2333C149.024 23.4373 149.291 24.4056 149.813 25.1384C150.335 25.8465 151.112 26.1962 152.144 26.1874C153.176 26.1786 153.947 25.8157 154.457 25.0987C154.967 24.3571 155.216 23.3843 155.206 22.1803L155.04 2.71967L160.089 2.67651L160.249 21.3632C160.264 23.1569 159.995 24.7688 159.442 26.1987C158.914 27.6285 158.039 28.7664 156.818 29.6123C155.596 30.4582 153.966 30.8899 151.926 30.9073Z" fill="url(#paint9_radial_513_259)"/>
<path d="M172.889 30.4672L168.784 19.0957L166.355 18.9633L165.781 29.4892L160.371 29.1944L161.876 1.59131L168.795 1.96842C171.788 2.13157 174.082 2.94562 175.675 4.41058C177.27 5.85099 177.987 8.04336 177.827 10.9877C177.741 12.558 177.334 13.9262 176.606 15.0924C175.903 16.2599 174.918 17.1782 173.651 17.8475L177.956 28.9346L172.889 30.4672ZM166.59 14.6572L167.841 14.7254C169.019 14.7896 170.043 14.5009 170.915 13.8594C171.811 13.2192 172.299 12.1752 172.378 10.7276C172.465 9.13277 172.132 8.00726 171.381 7.35106C170.629 6.69487 169.603 6.33133 168.302 6.26046L167.051 6.19226L166.59 14.6572Z" fill="url(#paint10_radial_513_259)"/>
<path d="M190.614 30.1571L189.117 24.6684L183.193 25.0094L182.636 30.0994L177.301 30.4065L181.361 2.81528L187.977 1.65918L195.994 29.3306L190.614 30.1571ZM184.966 7.70276L184.775 9.5228L183.376 20.4946L188.16 20.2193L185.398 9.44999L184.966 7.70276Z" fill="url(#paint11_radial_513_259)"/>
<defs>
<radialGradient id="paint0_radial_513_259" cx="0" cy="0" r="1" gradientUnits="userSpaceOnUse" gradientTransform="translate(49.8194 12.4162) rotate(94.2771) scale(9.31445 14.9031)">
<stop stop-color="#FCF5FF"/>
<stop offset="0.545" stop-color="#F4E9FF"/>
<stop offset="0.985" stop-color="#EB53F3"/>
</radialGradient>
<radialGradient id="paint1_radial_513_259" cx="0" cy="0" r="1" gradientUnits="userSpaceOnUse" gradientTransform="translate(23.2323 12.8823) rotate(77.4776) scale(9.31445 14.9031)">
<stop stop-color="#FCF5FF"/>
<stop offset="0.545" stop-color="#F4E9FF"/>
<stop offset="0.985" stop-color="#EB53F3"/>
</radialGradient>
<radialGradient id="paint2_radial_513_259" cx="0" cy="0" r="1" gradientUnits="userSpaceOnUse" gradientTransform="translate(18.9366 25.1319) rotate(-1.52753) scale(59.2076 4.71903)">
<stop stop-color="#FCF5FF"/>
<stop offset="0.49" stop-color="#F4E9FF"/>
<stop offset="1" stop-color="#EB53F3"/>
</radialGradient>
<linearGradient id="paint3_linear_513_259" x1="1.57829" y1="22.7632" x2="6.33387" y2="22.7632" gradientUnits="userSpaceOnUse">
<stop stop-color="#FCF5FF"/>
<stop offset="0.49" stop-color="#F4E9FF"/>
<stop offset="1" stop-color="#EB53F3"/>
</linearGradient>
<linearGradient id="paint4_linear_513_259" x1="65.2072" y1="22.4201" x2="70.4384" y2="22.4201" gradientUnits="userSpaceOnUse">
<stop stop-color="#FCF5FF"/>
<stop offset="0.49" stop-color="#F4E9FF"/>
<stop offset="1" stop-color="#EB53F3"/>
</linearGradient>
<radialGradient id="paint5_radial_513_259" cx="0" cy="0" r="1" gradientUnits="userSpaceOnUse" gradientTransform="translate(86.5064 14.7324) rotate(86.3848) scale(28.8731 10.5638)">
<stop stop-color="#FCF5FF"/>
<stop offset="0.545" stop-color="#F4E9FF"/>
<stop offset="0.985" stop-color="#EB53F3"/>
</radialGradient>
<radialGradient id="paint6_radial_513_259" cx="0" cy="0" r="1" gradientUnits="userSpaceOnUse" gradientTransform="translate(101.361 14.9147) rotate(86.36) scale(28.2499 10.4063)">
<stop stop-color="#FCF5FF"/>
<stop offset="0.545" stop-color="#F4E9FF"/>
<stop offset="0.985" stop-color="#EB53F3"/>
</radialGradient>
<radialGradient id="paint7_radial_513_259" cx="0" cy="0" r="1" gradientUnits="userSpaceOnUse" gradientTransform="translate(117.506 15.8619) rotate(86.3026) scale(29.1918 10.9218)">
<stop stop-color="#FCF5FF"/>
<stop offset="0.545" stop-color="#F4E9FF"/>
<stop offset="0.985" stop-color="#EB53F3"/>
</radialGradient>
<radialGradient id="paint8_radial_513_259" cx="0" cy="0" r="1" gradientUnits="userSpaceOnUse" gradientTransform="translate(133.738 15.8829) rotate(86.1837) scale(28.3454 10.944)">
<stop stop-color="#FCF5FF"/>
<stop offset="0.545" stop-color="#F4E9FF"/>
<stop offset="0.985" stop-color="#EB53F3"/>
</radialGradient>
<radialGradient id="paint9_radial_513_259" cx="0" cy="0" r="1" gradientUnits="userSpaceOnUse" gradientTransform="translate(151.166 16.1585) rotate(86.2921) scale(28.3521 10.6376)">
<stop stop-color="#FCF5FF"/>
<stop offset="0.545" stop-color="#F4E9FF"/>
<stop offset="0.985" stop-color="#EB53F3"/>
</radialGradient>
<radialGradient id="paint10_radial_513_259" cx="0" cy="0" r="1" gradientUnits="userSpaceOnUse" gradientTransform="translate(168.46 15.3812) rotate(86.2102) scale(29.0022 11.1204)">
<stop stop-color="#FCF5FF"/>
<stop offset="0.545" stop-color="#F4E9FF"/>
<stop offset="0.985" stop-color="#EB53F3"/>
</radialGradient>
<radialGradient id="paint11_radial_513_259" cx="0" cy="0" r="1" gradientUnits="userSpaceOnUse" gradientTransform="translate(185.899 15.3876) rotate(85.9542) scale(28.8818 11.8177)">
<stop stop-color="#FCF5FF"/>
<stop offset="0.545" stop-color="#F4E9FF"/>
<stop offset="0.985" stop-color="#EB53F3"/>
</radialGradient>
</defs>
</svg>
